<svg width="130" height="36" viewBox="0 0 130 36" fill="none" xmlns="http://www.w3.org/2000/svg">
<path d="M50.384 23.52L50.132 18.284L59.512 8.4H64.552L56.096 17.5L53.576 20.188L50.384 23.52ZM46.324 28V8.4H50.832V28H46.324ZM59.736 28L52.764 19.46L55.732 16.24L65.028 28H59.736ZM66.4691 28V12.936H70.6411V17.192L70.0531 15.96C70.5011 14.896 71.2198 14.0933 72.2091 13.552C73.1985 12.992 74.4025 12.712 75.8211 12.712V16.744C75.6345 16.7253 75.4665 16.716 75.3171 16.716C75.1678 16.6973 75.0091 16.688 74.8411 16.688C73.6465 16.688 72.6758 17.0333 71.9291 17.724C71.2011 18.396 70.8371 19.4507 70.8371 20.888V28H66.4691ZM85.785 28.224C84.0676 28.224 82.5556 27.888 81.249 27.216C79.961 26.544 78.9623 25.6293 78.253 24.472C77.5436 23.296 77.189 21.9613 77.189 20.468C77.189 18.956 77.5343 17.6213 78.225 16.464C78.9343 15.288 79.8956 14.3733 81.109 13.72C82.3223 13.048 83.6943 12.712 85.225 12.712C86.6996 12.712 88.025 13.0293 89.201 13.664C90.3956 14.28 91.3383 15.176 92.029 16.352C92.7196 17.5093 93.065 18.9 93.065 20.524C93.065 20.692 93.0556 20.888 93.037 21.112C93.0183 21.3173 92.9996 21.5133 92.981 21.7H80.745V19.152H90.685L89.005 19.908C89.005 19.124 88.8463 18.4427 88.529 17.864C88.2116 17.2853 87.773 16.8373 87.213 16.52C86.653 16.184 85.9996 16.016 85.253 16.016C84.5063 16.016 83.8436 16.184 83.265 16.52C82.705 16.8373 82.2663 17.2947 81.949 17.892C81.6316 18.4707 81.473 19.1613 81.473 19.964V20.636C81.473 21.4573 81.6503 22.1853 82.005 22.82C82.3783 23.436 82.8916 23.912 83.545 24.248C84.217 24.5653 85.001 24.724 85.897 24.724C86.6996 24.724 87.3996 24.6027 87.997 24.36C88.613 24.1173 89.173 23.7533 89.677 23.268L92.001 25.788C91.3103 26.572 90.4423 27.1787 89.397 27.608C88.3516 28.0187 87.1476 28.224 85.785 28.224ZM95.973 28V7.224H100.341V28H95.973ZM104.395 28V7.224H108.763V28H104.395ZM119.985 28.224C118.379 28.224 116.951 27.888 115.701 27.216C114.469 26.544 113.489 25.6293 112.761 24.472C112.051 23.296 111.697 21.9613 111.697 20.468C111.697 18.956 112.051 17.6213 112.761 16.464C113.489 15.288 114.469 14.3733 115.701 13.72C116.951 13.048 118.379 12.712 119.985 12.712C121.571 12.712 122.99 13.048 124.241 13.72C125.491 14.3733 126.471 15.2787 127.181 16.436C127.89 17.5933 128.245 18.9373 128.245 20.468C128.245 21.9613 127.89 23.296 127.181 24.472C126.471 25.6293 125.491 26.544 124.241 27.216C122.99 27.888 121.571 28.224 119.985 28.224ZM119.985 24.64C120.713 24.64 121.366 24.472 121.945 24.136C122.523 23.8 122.981 23.324 123.317 22.708C123.653 22.0733 123.821 21.3267 123.821 20.468C123.821 19.5907 123.653 18.844 123.317 18.228C122.981 17.612 122.523 17.136 121.945 16.8C121.366 16.464 120.713 16.296 119.985 16.296C119.257 16.296 118.603 16.464 118.025 16.8C117.446 17.136 116.979 17.612 116.625 18.228C116.289 18.844 116.121 19.5907 116.121 20.468C116.121 21.3267 116.289 22.0733 116.625 22.708C116.979 23.324 117.446 23.8 118.025 24.136C118.603 24.472 119.257 24.64 119.985 24.64Z" fill="black"/>
<rect width="36" height="36" rx="4" fill="#EB4F27"/>
<path d="M7.19995 10.9614C7.19995 9.48049 8.40044 8.28 9.88133 8.28H13.9034C15.3843 8.28 16.5848 9.48049 16.5848 10.9614V25.0386C16.5848 26.5195 15.3843 27.72 13.9034 27.72H9.88133C8.40044 27.72 7.19995 26.5195 7.19995 25.0386V10.9614Z" fill="white"/>
<path d="M19.2661 10.9614C19.2661 9.48049 20.4666 8.28 21.9475 8.28H25.9696C27.4504 8.28 28.6509 9.48049 28.6509 10.9614V17.6648C28.6509 19.1457 27.4504 20.3462 25.9696 20.3462H21.9475C20.4666 20.3462 19.2661 19.1457 19.2661 17.6648V10.9614Z" fill="white"/>
</svg>
