<svg width="128" height="34" viewBox="0 0 128 34" fill="none" xmlns="http://www.w3.org/2000/svg">
<path d="M48.384 22.52L48.132 17.284L57.512 7.4H62.552L54.096 16.5L51.576 19.188L48.384 22.52ZM44.324 27V7.4H48.832V27H44.324ZM57.736 27L50.764 18.46L53.732 15.24L63.028 27H57.736ZM64.4691 27V11.936H68.6411V16.192L68.0531 14.96C68.5011 13.896 69.2198 13.0933 70.2091 12.552C71.1985 11.992 72.4025 11.712 73.8211 11.712V15.744C73.6345 15.7253 73.4665 15.716 73.3171 15.716C73.1678 15.6973 73.0091 15.688 72.8411 15.688C71.6465 15.688 70.6758 16.0333 69.9291 16.724C69.2011 17.396 68.8371 18.4507 68.8371 19.888V27H64.4691ZM83.785 27.224C82.0676 27.224 80.5556 26.888 79.249 26.216C77.961 25.544 76.9623 24.6293 76.253 23.472C75.5436 22.296 75.189 20.9613 75.189 19.468C75.189 17.956 75.5343 16.6213 76.225 15.464C76.9343 14.288 77.8956 13.3733 79.109 12.72C80.3223 12.048 81.6943 11.712 83.225 11.712C84.6996 11.712 86.025 12.0293 87.201 12.664C88.3956 13.28 89.3383 14.176 90.029 15.352C90.7196 16.5093 91.065 17.9 91.065 19.524C91.065 19.692 91.0556 19.888 91.037 20.112C91.0183 20.3173 90.9996 20.5133 90.981 20.7H78.745V18.152H88.685L87.005 18.908C87.005 18.124 86.8463 17.4427 86.529 16.864C86.2116 16.2853 85.773 15.8373 85.213 15.52C84.653 15.184 83.9996 15.016 83.253 15.016C82.5063 15.016 81.8436 15.184 81.265 15.52C80.705 15.8373 80.2663 16.2947 79.949 16.892C79.6316 17.4707 79.473 18.1613 79.473 18.964V19.636C79.473 20.4573 79.6503 21.1853 80.005 21.82C80.3783 22.436 80.8916 22.912 81.545 23.248C82.217 23.5653 83.001 23.724 83.897 23.724C84.6996 23.724 85.3996 23.6027 85.997 23.36C86.613 23.1173 87.173 22.7533 87.677 22.268L90.001 24.788C89.3103 25.572 88.4423 26.1787 87.397 26.608C86.3516 27.0187 85.1476 27.224 83.785 27.224ZM93.973 27V6.224H98.341V27H93.973ZM102.395 27V6.224H106.763V27H102.395ZM117.985 27.224C116.379 27.224 114.951 26.888 113.701 26.216C112.469 25.544 111.489 24.6293 110.761 23.472C110.051 22.296 109.697 20.9613 109.697 19.468C109.697 17.956 110.051 16.6213 110.761 15.464C111.489 14.288 112.469 13.3733 113.701 12.72C114.951 12.048 116.379 11.712 117.985 11.712C119.571 11.712 120.99 12.048 122.241 12.72C123.491 13.3733 124.471 14.2787 125.181 15.436C125.89 16.5933 126.245 17.9373 126.245 19.468C126.245 20.9613 125.89 22.296 125.181 23.472C124.471 24.6293 123.491 25.544 122.241 26.216C120.99 26.888 119.571 27.224 117.985 27.224ZM117.985 23.64C118.713 23.64 119.366 23.472 119.945 23.136C120.523 22.8 120.981 22.324 121.317 21.708C121.653 21.0733 121.821 20.3267 121.821 19.468C121.821 18.5907 121.653 17.844 121.317 17.228C120.981 16.612 120.523 16.136 119.945 15.8C119.366 15.464 118.713 15.296 117.985 15.296C117.257 15.296 116.603 15.464 116.025 15.8C115.446 16.136 114.979 16.612 114.625 17.228C114.289 17.844 114.121 18.5907 114.121 19.468C114.121 20.3267 114.289 21.0733 114.625 21.708C114.979 22.324 115.446 22.8 116.025 23.136C116.603 23.472 117.257 23.64 117.985 23.64Z" fill="black"/>
<path d="M0 6C0 3.79086 1.79086 2 4 2H10C12.2091 2 14 3.79086 14 6V27C14 29.2091 12.2091 31 10 31H4C1.79086 31 0 29.2091 0 27V6Z" fill="#2F80ED"/>
<path d="M18 6C18 3.79086 19.7909 2 22 2H28C30.2091 2 32 3.79086 32 6V16C32 18.2091 30.2091 20 28 20H22C19.7909 20 18 18.2091 18 16V6Z" fill="#2F80ED"/>
</svg>
