<svg width="100" height="100" viewBox="0 0 100 100" fill="none" xmlns="http://www.w3.org/2000/svg">
<rect width="100" height="100" rx="16" fill="#EB4F27"/>
<path d="M20 30.4483C20 26.3347 23.3347 23 27.4483 23H38.6207C42.7342 23 46.069 26.3347 46.069 30.4483V69.5517C46.069 73.6652 42.7342 77 38.6207 77H27.4483C23.3347 77 20 73.6652 20 69.5517V30.4483Z" fill="white"/>
<path d="M53.5173 30.4483C53.5173 26.3347 56.8521 23 60.9656 23H72.138C76.2515 23 79.5863 26.3347 79.5863 30.4483V49.069C79.5863 53.1825 76.2515 56.5172 72.138 56.5172H60.9656C56.8521 56.5172 53.5173 53.1825 53.5173 49.069V30.4483Z" fill="white"/>
</svg>
