<svg width="214" height="54" viewBox="0 0 214 54" fill="none" xmlns="http://www.w3.org/2000/svg">
<path d="M36.9993 22.414C36.8881 23.1797 36.3832 24.2199 35.804 25.1243C35.0732 26.2654 33.9135 27.0647 32.5863 27.3422L26.7397 28.5648C25.8001 28.7613 24.948 29.2531 24.3082 29.9682L20.4747 34.2532C19.7543 35.0585 19.2507 34.8665 19.2507 33.7864C19.242 33.8264 17.3481 38.7105 22.3671 41.6054C24.2955 42.7177 27.0715 42.3181 28.9999 41.2058L39.2177 35.3121C43.0389 33.108 45.7369 29.3793 46.6337 25.063C46.6692 24.8923 46.6966 24.7209 46.7262 24.5497L36.9993 22.414Z" fill="url(#paint0_linear_1_147)"/>
<path d="M34.3494 16.5269C36.2778 17.6392 37.0657 19.2952 37.0657 21.5198C37.0657 21.8218 37.0419 22.1202 36.9993 22.414L41.1164 24.1826L46.7262 24.5497C47.4445 20.3924 46.0368 16.1133 43.5131 12.7119C41.614 10.1523 39.1702 7.93098 36.2323 6.23634C33.8457 4.85976 31.3656 3.95278 28.8739 3.45511L26.0742 7.08062L25.1899 11.2437L34.3494 16.5269Z" fill="url(#paint1_linear_1_147)"/>
<path d="M1.39537 19.5777C1.39432 19.581 1.39722 19.5819 1.39831 19.5787C1.61435 18.9307 1.88524 18.2078 2.22343 17.4355C3.98999 13.4015 7.39426 10.7109 11.5823 9.33912C15.7704 7.96734 20.3432 8.44819 24.1602 10.6498L25.1898 11.2437L28.8737 3.45512C17.1564 1.11485 5.18089 7.9988 1.41026 19.5326C1.40846 19.5381 1.40191 19.5573 1.39537 19.5777Z" fill="url(#paint2_linear_1_147)"/>
<path d="M28.5997 41.2057C26.6713 42.318 24.2954 42.318 22.367 41.2057C22.1052 41.0547 21.8584 40.885 21.6251 40.7011L18.2335 43.0329L15.3104 47.7565C18.5549 50.4566 22.7681 51.3247 26.9784 50.8419C30.1468 50.4786 33.2942 49.4749 36.2322 47.7803C38.6187 46.4037 40.645 44.7114 42.3223 42.8043L40.5793 38.5693L37.7592 35.9225L28.5997 41.2057Z" fill="url(#paint3_linear_1_147)"/>
<path d="M21.6251 40.7011C20.1393 39.5308 19.2506 37.7358 19.2506 35.8131V35.6214V19.6086C19.2506 18.703 19.5174 18.5491 20.3024 19.0019C19.0934 18.3045 16.3003 15.9105 12.8517 17.8997C10.9233 19.012 9.33527 21.4673 9.33527 23.6919V35.4793C9.33527 39.8875 11.6185 44.4859 14.9116 47.4199C15.0419 47.5359 15.1767 47.6453 15.3104 47.7565L21.6251 40.7011Z" fill="url(#paint4_linear_1_147)"/>
<path d="M42.0856 10.9686C42.0833 10.966 42.081 10.9681 42.0833 10.9706C42.537 11.4815 43.0282 12.0774 43.5285 12.7561C46.1422 16.3016 47.1188 20.7921 46.2139 25.1015C45.309 29.411 42.6057 33.127 38.7888 35.3286L37.7592 35.9225L42.3222 42.8043C50.2096 33.8365 50.23 20.0333 42.1173 11.004C42.1134 10.9997 42.1 10.9844 42.0856 10.9686Z" fill="url(#paint5_linear_1_147)"/>
<path d="M9.73529 23.692C9.73527 21.4673 10.9232 19.4117 12.8517 18.2994C13.1134 18.1484 13.384 18.0198 13.66 17.9097L13.3345 13.8095L11.0479 9.11838C7.08503 10.5755 3.87952 13.5869 2.19289 17.4711C0.923616 20.3941 0.219985 23.6191 0.219971 27.0083C0.219971 29.7615 0.673794 32.3608 1.48827 34.7655L6.03084 35.375L9.73529 34.2585V23.692Z" fill="url(#paint6_linear_1_147)"/>
<path d="M13.66 17.9097C15.4174 17.2094 17.4178 17.3381 19.0844 18.2994L19.2506 18.3952L32.5937 26.0916C33.5297 26.6315 33.4446 27.1627 32.3867 27.3839L33.1565 27.223C34.1693 27.0112 35.0946 26.4936 35.8023 25.7393C37.019 24.4424 37.4656 22.8777 37.4656 21.5198C37.4656 19.2952 36.2777 17.2396 34.3493 16.1273L24.1315 10.2336C20.3102 8.02947 15.729 7.55947 11.5391 8.9417C11.3734 8.99637 11.2111 9.05836 11.0479 9.11838L13.66 17.9097Z" fill="url(#paint7_linear_1_147)"/>
<path d="M29.2033 50.4786C29.2066 50.4779 29.206 50.4749 29.2026 50.4756C28.5329 50.6127 27.7708 50.7397 26.9323 50.8333C22.5521 51.3219 18.1712 49.9216 14.8881 46.9839C11.6049 44.0463 9.7353 39.8494 9.73531 35.4462L9.73529 34.2585L1.48828 34.7655C5.3183 46.0735 17.2734 52.9928 29.1567 50.4883C29.1624 50.4871 29.1823 50.4832 29.2033 50.4786Z" fill="url(#paint8_linear_1_147)"/>
<path d="M66.8024 40V13.8182H83.5751V17.794H71.5453V24.902H82.4245V28.8778H71.5453V40H66.8024ZM92.3194 13.8182V40H87.6916V13.8182H92.3194ZM105.644 40.3835C103.726 40.3835 102.064 39.9616 100.658 39.1179C99.2516 38.2741 98.1607 37.0937 97.3851 35.5767C96.6181 34.0597 96.2345 32.2869 96.2345 30.2585C96.2345 28.2301 96.6181 26.4531 97.3851 24.9276C98.1607 23.402 99.2516 22.2173 100.658 21.3736C102.064 20.5298 103.726 20.108 105.644 20.108C107.561 20.108 109.223 20.5298 110.629 21.3736C112.036 22.2173 113.122 23.402 113.889 24.9276C114.665 26.4531 115.053 28.2301 115.053 30.2585C115.053 32.2869 114.665 34.0597 113.889 35.5767C113.122 37.0937 112.036 38.2741 110.629 39.1179C109.223 39.9616 107.561 40.3835 105.644 40.3835ZM105.669 36.6761C106.709 36.6761 107.578 36.3906 108.277 35.8196C108.976 35.2401 109.496 34.4645 109.837 33.4929C110.186 32.5213 110.361 31.4389 110.361 30.2457C110.361 29.044 110.186 27.9574 109.837 26.9858C109.496 26.0057 108.976 25.2259 108.277 24.6463C107.578 24.0668 106.709 23.777 105.669 23.777C104.604 23.777 103.717 24.0668 103.01 24.6463C102.311 25.2259 101.787 26.0057 101.438 26.9858C101.097 27.9574 100.926 29.044 100.926 30.2457C100.926 31.4389 101.097 32.5213 101.438 33.4929C101.787 34.4645 102.311 35.2401 103.01 35.8196C103.717 36.3906 104.604 36.6761 105.669 36.6761ZM122.471 40L116.922 20.3636H121.64L125.091 34.1705H125.27L128.799 20.3636H133.465L136.993 34.0938H137.185L140.586 20.3636H145.316L139.755 40H134.935L131.253 26.7301H130.985L127.303 40H122.471ZM148.752 40V13.8182H153.379V23.6108H153.571C153.81 23.1335 154.146 22.6264 154.581 22.0895C155.016 21.544 155.604 21.0795 156.345 20.696C157.087 20.304 158.033 20.108 159.183 20.108C160.7 20.108 162.068 20.4957 163.287 21.2713C164.514 22.0384 165.486 23.1761 166.202 24.6847C166.926 26.1847 167.289 28.0256 167.289 30.2074C167.289 32.3636 166.935 34.196 166.227 35.7045C165.52 37.2131 164.557 38.3636 163.338 39.1562C162.119 39.9489 160.739 40.3452 159.196 40.3452C158.071 40.3452 157.138 40.1577 156.396 39.7827C155.655 39.4077 155.058 38.956 154.607 38.4276C154.164 37.8906 153.818 37.3835 153.571 36.9062H153.303V40H148.752ZM153.29 30.1818C153.29 31.4517 153.469 32.5639 153.827 33.5185C154.193 34.473 154.717 35.2187 155.399 35.7557C156.09 36.2841 156.925 36.5483 157.905 36.5483C158.928 36.5483 159.784 36.2756 160.475 35.7301C161.165 35.1761 161.685 34.4219 162.034 33.4673C162.392 32.5043 162.571 31.4091 162.571 30.1818C162.571 28.9631 162.396 27.8807 162.047 26.9347C161.698 25.9886 161.178 25.2472 160.487 24.7102C159.797 24.1733 158.936 23.9048 157.905 23.9048C156.916 23.9048 156.077 24.1648 155.387 24.6847C154.696 25.2045 154.172 25.9332 153.814 26.8707C153.465 27.8082 153.29 28.9119 153.29 30.1818ZM171.223 40V20.3636H175.851V40H171.223ZM173.55 17.5767C172.817 17.5767 172.186 17.3338 171.657 16.848C171.129 16.3537 170.865 15.7614 170.865 15.071C170.865 14.3722 171.129 13.7798 171.657 13.294C172.186 12.7997 172.817 12.5526 173.55 12.5526C174.291 12.5526 174.922 12.7997 175.442 13.294C175.97 13.7798 176.234 14.3722 176.234 15.071C176.234 15.7614 175.97 16.3537 175.442 16.848C174.922 17.3338 174.291 17.5767 173.55 17.5767ZM190.415 20.3636V23.9432H179.127V20.3636H190.415ZM181.914 15.6591H186.541V34.0938C186.541 34.7159 186.635 35.1932 186.823 35.5256C187.019 35.8494 187.274 36.071 187.59 36.1903C187.905 36.3097 188.254 36.3693 188.638 36.3693C188.928 36.3693 189.192 36.348 189.431 36.3054C189.678 36.2628 189.865 36.2244 189.993 36.1903L190.773 39.8082C190.526 39.8935 190.172 39.9872 189.712 40.0895C189.26 40.1918 188.706 40.2514 188.05 40.2685C186.891 40.3026 185.847 40.1278 184.918 39.7443C183.989 39.3523 183.252 38.7472 182.706 37.929C182.169 37.1108 181.905 36.0881 181.914 34.8608V15.6591ZM202.768 40.3835C200.799 40.3835 199.099 39.9744 197.667 39.1562C196.243 38.3295 195.148 37.1619 194.381 35.6534C193.614 34.1364 193.231 32.3509 193.231 30.2969C193.231 28.277 193.614 26.5043 194.381 24.9787C195.157 23.4446 196.239 22.2514 197.628 21.3991C199.018 20.5384 200.65 20.108 202.525 20.108C203.735 20.108 204.877 20.304 205.951 20.696C207.033 21.0795 207.988 21.6761 208.814 22.4858C209.65 23.2955 210.306 24.3267 210.783 25.5795C211.26 26.8239 211.499 28.3068 211.499 30.0284V31.4474H195.404V28.3281H207.063C207.054 27.4418 206.863 26.6534 206.488 25.9631C206.113 25.2642 205.589 24.7145 204.915 24.3139C204.251 23.9134 203.475 23.7131 202.589 23.7131C201.643 23.7131 200.812 23.9432 200.096 24.4034C199.38 24.8551 198.822 25.4517 198.421 26.1932C198.029 26.9261 197.829 27.7315 197.82 28.6094V31.3324C197.82 32.4744 198.029 33.4545 198.447 34.2727C198.864 35.0824 199.448 35.7045 200.198 36.1392C200.948 36.5653 201.826 36.7784 202.831 36.7784C203.505 36.7784 204.114 36.6847 204.66 36.4972C205.205 36.3011 205.678 36.0156 206.079 35.6406C206.479 35.2656 206.782 34.8011 206.986 34.2472L211.307 34.733C211.035 35.875 210.515 36.8722 209.748 37.7244C208.989 38.5682 208.018 39.2244 206.833 39.6932C205.648 40.1534 204.293 40.3835 202.768 40.3835Z" fill="#111928"/>
<defs>
<linearGradient id="paint0_linear_1_147" x1="30.3101" y1="38.6549" x2="35.0314" y2="22.2102" gradientUnits="userSpaceOnUse">
<stop stop-color="#1724C9"/>
<stop offset="1" stop-color="#1C64F2"/>
</linearGradient>
<linearGradient id="paint1_linear_1_147" x1="41.1841" y1="18.6005" x2="28.7646" y2="6.22471" gradientUnits="userSpaceOnUse">
<stop stop-color="#1C64F2"/>
<stop offset="1" stop-color="#0092FF"/>
</linearGradient>
<linearGradient id="paint2_linear_1_147" x1="24.4667" y1="10.5317" x2="5.73144" y2="11.7156" gradientUnits="userSpaceOnUse">
<stop stop-color="#0092FF"/>
<stop offset="1" stop-color="#45B2FF"/>
</linearGradient>
<linearGradient id="paint3_linear_1_147" x1="23.1996" y1="45.994" x2="40.0249" y2="41.4539" gradientUnits="userSpaceOnUse">
<stop stop-color="#1C64F2"/>
<stop offset="1" stop-color="#0092FF"/>
</linearGradient>
<linearGradient id="paint4_linear_1_147" x1="11.1231" y1="26.524" x2="23.0686" y2="38.9021" gradientUnits="userSpaceOnUse">
<stop stop-color="#1724C9"/>
<stop offset="1" stop-color="#1C64F2"/>
</linearGradient>
<linearGradient id="paint5_linear_1_147" x1="38.3956" y1="35.4535" x2="46.7303" y2="18.6518" gradientUnits="userSpaceOnUse">
<stop stop-color="#0092FF"/>
<stop offset="1" stop-color="#45B2FF"/>
</linearGradient>
<linearGradient id="paint6_linear_1_147" x1="8.26577" y1="16.6965" x2="3.80578" y2="33.4598" gradientUnits="userSpaceOnUse">
<stop stop-color="#1C64F2"/>
<stop offset="1" stop-color="#0092FF"/>
</linearGradient>
<linearGradient id="paint7_linear_1_147" x1="31.0346" y1="15.8991" x2="14.7365" y2="19.957" gradientUnits="userSpaceOnUse">
<stop stop-color="#1724C9"/>
<stop offset="1" stop-color="#1C64F2"/>
</linearGradient>
<linearGradient id="paint8_linear_1_147" x1="9.8301" y1="35.035" x2="20.2188" y2="50.662" gradientUnits="userSpaceOnUse">
<stop stop-color="#0092FF"/>
<stop offset="1" stop-color="#45B2FF"/>
</linearGradient>
</defs>
</svg>
