<svg width="211" height="125" viewBox="0 0 211 125" fill="none" xmlns="http://www.w3.org/2000/svg">
<g clip-path="url(#clip0_317_2)">
<path d="M167.77 33.756C170.949 33.756 173.526 31.1872 173.526 28.0184C173.526 24.8496 170.949 22.2808 167.77 22.2808C164.59 22.2808 162.013 24.8496 162.013 28.0184C162.013 31.1872 164.59 33.756 167.77 33.756Z" fill="black"/>
<path d="M144.094 47.2183C144.094 51.9512 144.094 64.2972 144.094 67.713C144.094 72.0664 143.31 88.0068 127.048 88.0068C110.047 88.0068 110.405 72.0888 110.405 65.9493C110.405 60.7251 110.405 50.2322 110.405 47.2406H101.67V68.2488C101.67 68.2488 99.8554 96.937 126.6 96.937C153.345 96.937 152.449 69.1418 152.449 69.1418V47.2183H144.094ZM182.889 10.0911H191.513V94.5928H182.889V10.0911ZM112.892 105.532C95.1068 105.532 69.2358 102.853 52.7948 102.675C50.0621 102.675 47.643 103.009 45.4927 103.545L48.4046 100.956C51.6076 98.0755 56.8266 96.2895 58.1258 96.0439C79.2706 91.8914 95.0396 75.125 95.0396 48.5354C95.0396 18.5747 73.7604 0 47.5086 0C21.2568 0 0 17.1682 0 48.5131C0 76.8218 19.0169 94.95 43.2528 96.8476C43.2528 96.8476 44.5295 96.87 44.6863 97.6514C44.8207 98.3434 43.6111 99.3481 43.6111 99.3481L29.1861 112.654L31.9636 115.646L37.2946 110.89C40.2737 108.524 45.1567 105.622 51.2045 105.622C71.2069 105.622 93.3597 125.513 113.944 125.022C144.049 124.308 151.06 104.26 151.821 101.67C151.866 101.581 139.368 105.532 112.892 105.532ZM8.82527 48.5131C8.82527 22.9952 26.1398 8.99714 47.531 8.99714C68.8998 8.99714 86.2367 24.1114 86.2367 48.5131C86.2367 73.6515 68.9222 88.0291 47.531 88.0291C26.1398 88.0068 8.82527 72.8925 8.82527 48.5131ZM202.376 10.0911H211V94.5928H202.376V10.0911ZM163.402 47.129H172.025V94.5705H163.402V47.129Z" fill="black"/>
</g>
<defs>
<clipPath id="clip0_317_2">
<rect width="211" height="125" fill="white"/>
</clipPath>
</defs>
</svg>
